<svg  xmlns="http://www.w3.org/2000/svg" viewBox="0 0 310 32">
	<path d="M16.46,8.67c1.16,0.49,2.11,1.25,2.86,2.27
		c0.63,0.86,1.02,1.75,1.16,2.66c0.14,0.91,0.21,2.4,0.21,4.46v13.56h-6.14V17.59c0-1.24-0.21-2.24-0.63-3
		c-0.55-1.07-1.59-1.61-3.12-1.61c-1.59,0-2.79,0.53-3.61,1.6c-0.82,1.07-1.23,2.58-1.23,4.56v12.48h-6.07V0.41h6.07v11.14
		c0.87-1.35,1.88-2.29,3.02-2.83c1.15-0.53,2.35-0.8,3.62-0.8C14.02,7.92,15.3,8.17,16.46,8.67L16.46,8.67z"/>
	<path  d="M33.74,17.49c1.13-0.14,1.93-0.32,2.42-0.54
		c0.87-0.37,1.3-0.95,1.3-1.73c0-0.96-0.33-1.62-1-1.98c-0.67-0.36-1.65-0.55-2.94-0.55c-1.45,0-2.47,0.35-3.08,1.06
		c-0.43,0.52-0.72,1.23-0.86,2.12h-5.85c0.13-2,0.7-3.64,1.71-4.93c1.61-2.01,4.37-3.02,8.29-3.02c2.55,0,4.81,0.49,6.79,1.46
		c1.98,0.98,2.97,2.87,2.97,5.67v10.69c0,0.74,0.01,1.64,0.04,2.69c0.04,0.79,0.16,1.33,0.35,1.61c0.19,0.28,0.49,0.52,0.87,0.7
		v0.87h-6.53c-0.18-0.46-0.31-0.89-0.38-1.29c-0.07-0.4-0.13-0.86-0.17-1.38c-0.84,0.91-1.81,1.69-2.91,2.33
		c-1.31,0.76-2.8,1.13-4.45,1.13c-2.11,0-3.86-0.6-5.23-1.81c-1.38-1.21-2.07-2.91-2.07-5.13c0-2.87,1.1-4.95,3.31-6.23
		c1.21-0.7,2.99-1.2,5.34-1.5L33.74,17.49L33.74,17.49z M37.44,20.32c-0.39,0.24-0.78,0.44-1.17,0.59c-0.4,0.15-0.94,0.29-1.62,0.42
		l-1.38,0.26c-1.29,0.23-2.21,0.51-2.77,0.84c-0.94,0.56-1.41,1.43-1.41,2.6c0,1.05,0.29,1.8,0.87,2.27c0.58,0.47,1.29,0.7,2.12,0.7
		c1.32,0,2.53-0.39,3.64-1.16c1.11-0.77,1.69-2.19,1.73-4.24V20.32L37.44,20.32z"/>
	<path  d="M61.67,7.94c0.08,0.01,0.25,0.03,0.52,0.05v6.14
		c-0.38-0.03-0.72-0.05-1.02-0.06c-0.3-0.01-0.54-0.01-0.72-0.01c-2.44,0-4.08,0.79-4.92,2.38c-0.47,0.89-0.7,2.26-0.7,4.12v11.06
		h-6.07V8.5h5.78v4.02c0.93-1.55,1.75-2.6,2.44-3.17c1.13-0.95,2.6-1.43,4.41-1.43C61.5,7.92,61.59,7.93,61.67,7.94L61.67,7.94z"/>
	<path d="M94.62,8.52c1,0.4,1.91,1.09,2.72,2.09
		c0.66,0.81,1.1,1.8,1.33,2.98c0.14,0.78,0.21,1.92,0.21,3.42l-0.04,14.61H92.6V16.84c0-0.88-0.14-1.6-0.43-2.17
		c-0.55-1.08-1.55-1.62-3.01-1.62c-1.69,0-2.86,0.7-3.51,2.09c-0.33,0.74-0.49,1.62-0.49,2.66v13.82h-6.07V17.81
		c0-1.38-0.14-2.38-0.43-3c-0.51-1.12-1.52-1.68-3.01-1.68c-1.74,0-2.91,0.56-3.51,1.68c-0.33,0.64-0.49,1.59-0.49,2.85v13.96h-6.07
		V8.5h5.78v3.35c0.75-1.2,1.47-2.06,2.13-2.57c1.18-0.91,2.71-1.36,4.59-1.36c1.78,0,3.21,0.39,4.31,1.17
		c0.88,0.72,1.55,1.65,2.01,2.78c0.8-1.36,1.79-2.36,2.98-2.99c1.26-0.64,2.66-0.96,4.2-0.96C92.6,7.92,93.62,8.12,94.62,8.52
		L94.62,8.52z"/>
	<path d="M110.8,17.49c1.13-0.14,1.93-0.32,2.42-0.54
		c0.87-0.37,1.3-0.95,1.3-1.73c0-0.96-0.33-1.62-1-1.98c-0.67-0.36-1.65-0.55-2.94-0.55c-1.45,0-2.47,0.35-3.08,1.06
		c-0.43,0.52-0.72,1.23-0.86,2.12h-5.85c0.13-2,0.7-3.64,1.71-4.93c1.61-2.01,4.37-3.02,8.29-3.02c2.55,0,4.81,0.49,6.79,1.46
		c1.98,0.98,2.97,2.87,2.97,5.67v10.69c0,0.74,0.01,1.64,0.04,2.69c0.04,0.79,0.16,1.33,0.35,1.61c0.19,0.28,0.49,0.52,0.88,0.7
		v0.87h-6.53c-0.18-0.46-0.31-0.89-0.38-1.29c-0.07-0.4-0.13-0.86-0.17-1.38c-0.84,0.91-1.81,1.69-2.91,2.33
		c-1.31,0.76-2.8,1.13-4.45,1.13c-2.11,0-3.86-0.6-5.23-1.81c-1.38-1.21-2.07-2.91-2.07-5.13c0-2.87,1.1-4.95,3.31-6.23
		c1.21-0.7,2.99-1.2,5.34-1.5L110.8,17.49L110.8,17.49z M114.49,20.32c-0.39,0.24-0.78,0.44-1.17,0.59
		c-0.4,0.15-0.94,0.29-1.62,0.42l-1.38,0.26c-1.29,0.23-2.21,0.51-2.77,0.84c-0.94,0.56-1.41,1.43-1.41,2.6
		c0,1.05,0.29,1.8,0.87,2.27c0.58,0.47,1.29,0.7,2.12,0.7c1.32,0,2.53-0.39,3.64-1.16c1.11-0.77,1.69-2.19,1.73-4.24V20.32
		L114.49,20.32z"/>
	<path  d="M144.42,9.81c1.51,1.26,2.26,3.33,2.26,6.23v15.57h-6.28V17.56
		c0-1.21-0.16-2.15-0.47-2.8c-0.58-1.19-1.68-1.78-3.3-1.78c-1.99,0-3.36,0.87-4.1,2.61c-0.38,0.92-0.58,2.09-0.58,3.52v12.51h-6.07
		V8.5h5.85v3.41c0.77-1.19,1.5-2.05,2.19-2.58c1.23-0.94,2.8-1.41,4.69-1.41C140.98,7.92,142.92,8.55,144.42,9.81L144.42,9.81z"/>
	<polygon points="174.82,0.41 180.74,0.41 180.74,17.29 188.2,8.65 
		195.67,8.65 187.5,17.24 195.98,31.62 188.73,31.62 183.22,21.74 180.74,24.36 180.74,31.62 174.82,31.62 174.82,0.41 	"/>
	<path d="M208.11,17.49c1.12-0.14,1.93-0.32,2.42-0.54
		c0.87-0.37,1.3-0.95,1.3-1.73c0-0.96-0.33-1.62-1-1.98c-0.67-0.36-1.65-0.55-2.94-0.55c-1.45,0-2.47,0.35-3.08,1.06
		c-0.43,0.52-0.72,1.23-0.86,2.12h-5.85c0.13-2,0.7-3.64,1.71-4.93c1.61-2.01,4.37-3.02,8.29-3.02c2.55,0,4.81,0.49,6.79,1.46
		c1.98,0.98,2.97,2.87,2.97,5.67v10.69c0,0.74,0.01,1.64,0.04,2.69c0.04,0.79,0.16,1.33,0.35,1.61c0.19,0.28,0.49,0.52,0.87,0.7
		v0.87h-6.53c-0.18-0.46-0.31-0.89-0.38-1.29c-0.07-0.4-0.13-0.86-0.17-1.38c-0.84,0.91-1.81,1.69-2.91,2.33
		c-1.31,0.76-2.8,1.13-4.45,1.13c-2.11,0-3.86-0.6-5.23-1.81c-1.38-1.21-2.07-2.91-2.07-5.13c0-2.87,1.1-4.95,3.31-6.23
		c1.21-0.7,2.99-1.2,5.34-1.5L208.11,17.49L208.11,17.49z M211.81,20.32c-0.39,0.24-0.78,0.44-1.17,0.59
		c-0.39,0.15-0.94,0.29-1.62,0.42l-1.38,0.26c-1.29,0.23-2.21,0.51-2.77,0.84c-0.94,0.56-1.41,1.43-1.41,2.6
		c0,1.05,0.29,1.8,0.87,2.27c0.58,0.47,1.29,0.7,2.12,0.7c1.32,0,2.53-0.39,3.64-1.16c1.11-0.77,1.69-2.19,1.73-4.24V20.32
		L211.81,20.32z"/>
	<path d="M235.17,7.94c0.08,0.01,0.25,0.03,0.52,0.05v6.14
		c-0.38-0.03-0.73-0.05-1.02-0.06c-0.3-0.01-0.54-0.01-0.72-0.01c-2.44,0-4.08,0.79-4.92,2.38c-0.47,0.89-0.7,2.26-0.7,4.12v11.06
		h-6.07V8.5h5.78v4.02c0.93-1.55,1.75-2.6,2.44-3.17c1.13-0.95,2.6-1.43,4.41-1.43C234.99,7.92,235.09,7.93,235.17,7.94L235.17,7.94
		z"/>
	<path d="M249.71,8.85c1.09,0.61,1.97,1.46,2.65,2.55V0.41h6.07v31.21
		h-5.78v-3.12c-0.86,1.37-1.85,2.37-2.95,2.99c-1.11,0.62-2.48,0.93-4.12,0.93c-2.71,0-4.99-1.1-6.84-3.29
		c-1.85-2.19-2.77-5.01-2.77-8.44c0-3.96,0.91-7.08,2.73-9.35c1.82-2.27,4.25-3.41,7.29-3.41C247.38,7.92,248.63,8.23,249.71,8.85
		L249.71,8.85z M251.25,25.43c0.89-1.28,1.34-2.95,1.34-4.99c0-2.86-0.73-4.9-2.18-6.13c-0.87-0.74-1.89-1.11-3.04-1.11
		c-1.76,0-3.05,0.68-3.87,2.03c-0.82,1.35-1.23,3.02-1.23,5.02c0,2.16,0.42,3.88,1.26,5.17c0.84,1.29,2.12,1.94,3.83,1.94
		C249.05,27.36,250.35,26.71,251.25,25.43L251.25,25.43z"/>
	<path d="M281.45,28.8c-1.95,2.41-4.91,3.61-8.88,3.61
		c-3.97,0-6.94-1.2-8.89-3.61c-1.95-2.41-2.93-5.31-2.93-8.69c0-3.33,0.98-6.22,2.93-8.66c1.95-2.44,4.91-3.66,8.89-3.66
		c3.97,0,6.93,1.22,8.88,3.66c1.95,2.44,2.93,5.33,2.93,8.66C284.38,23.5,283.4,26.39,281.45,28.8L281.45,28.8z M276.67,25.46
		c0.95-1.26,1.43-3.05,1.43-5.38s-0.48-4.11-1.43-5.37c-0.95-1.25-2.32-1.88-4.09-1.88s-3.14,0.63-4.1,1.88
		c-0.96,1.26-1.44,3.04-1.44,5.37s0.48,4.12,1.44,5.38c0.96,1.26,2.32,1.89,4.1,1.89S275.71,26.73,276.67,25.46L276.67,25.46z"/>
	<path d="M307.34,9.81c1.51,1.26,2.26,3.33,2.26,6.23v15.57h-6.29V17.56
		c0-1.21-0.16-2.15-0.47-2.8c-0.58-1.19-1.68-1.78-3.3-1.78c-1.99,0-3.36,0.87-4.1,2.61c-0.39,0.92-0.58,2.09-0.58,3.52v12.51h-6.07
		V8.5h5.85v3.41c0.77-1.19,1.5-2.05,2.19-2.58c1.23-0.94,2.8-1.41,4.69-1.41C303.89,7.92,305.83,8.55,307.34,9.81L307.34,9.81z"/>
	<polygon points="170.38,0.41 169.14,0.41 150.97,31.62 152.21,31.62 
		170.38,0.41 	"/>
</svg>
