<svg xmlns="http://www.w3.org/2000/svg" viewBox="0 0 40 34">
	<path d="M23.43,2c0.3,0,0.65,0.07,1.02,0.19c0.43,0.15,0.69,0.3,0.82,0.39c0.26,0.19,0.5,0.45,0.71,0.76
		c0.21,0.31,0.39,0.68,0.53,1.09c0.34,0.98,0.41,1.95,0.41,2.59c0,0.74-0.09,1.24-0.16,1.52l-0.15,0.56
		c-0.22,0.83-0.48,1.78-0.62,2.6c-0.03,0.16-0.06,0.34-0.09,0.53c-0.02,0.18-0.04,0.35-0.05,0.52l-0.1,2.12l2.12-0.03
		c0.83-0.01,1.34-0.03,1.77-0.05l0.2-0.01c0.39-0.02,0.73-0.03,1.24-0.03h0.08h0.08c0.63,0,1.02-0.01,1.45-0.03
		c0.37-0.01,0.77-0.03,1.39-0.03c0.5,0,0.98,0.03,1.4,0.08c0.58,0.08,1.04,0.19,1.4,0.35c0.22,0.1,0.39,0.2,0.5,0.32
		c0.04,0.04,0.07,0.09,0.09,0.14c0.01,0.03,0.04,0.1,0.04,0.21c0,0.43-0.02,0.77-0.07,1.04c-0.04,0.23-0.08,0.35-0.14,0.45
		l-0.02,0.02l-1.58,1.4l1.48,1.51c0.07,0.07,0.09,0.1,0.1,0.12c0.06,0.09,0.11,0.2,0.15,0.32c0.06,0.19,0.09,0.42,0.09,0.67
		c0,0.06,0,0.12-0.01,0.19c-0.01,0.22-0.06,0.41-0.13,0.54c-0.06,0.11-0.13,0.17-0.19,0.21c-0.04,0.03-0.08,0.05-0.12,0.07
		l-2.34,1.2l1.78,1.94c0.03,0.03,0.05,0.06,0.06,0.1c0.01,0.02,0.02,0.08,0.02,0.18c0,0.05,0,0.09-0.01,0.14
		c-0.02,0.22-0.09,0.41-0.19,0.54c-0.08,0.1-0.2,0.19-0.36,0.26c-0.05,0.02-0.09,0.04-0.14,0.06l-2.93,1.04L35.13,30
		c0.04,0.05,0.08,0.09,0.11,0.13c0.11,0.17,0.17,0.43,0.17,0.74c0,0.19-0.05,0.28-0.07,0.31c-0.05,0.08-0.13,0.14-0.19,0.18
		c-0.07,0.05-0.17,0.09-0.28,0.13c-0.15,0.05-0.33,0.1-0.53,0.14c-0.28,0.05-0.55,0.07-0.8,0.09l-0.14,0.01
		c-0.1,0.01-0.19,0.01-0.26,0.02c-0.11,0.01-0.19,0.02-0.22,0.03L32.8,31.8l-0.11,0.03c-0.06,0.01-0.12,0.02-0.2,0.02
		c-0.21,0.02-0.47,0.03-0.78,0.04c-0.64,0.02-1.5,0.04-2.5,0.04c-2.08,0-5.13-0.06-7.44-0.23c-0.73-0.06-1.32-0.12-1.76-0.18
		c-0.25-0.04-0.43-0.07-0.54-0.1c-0.02-0.01-0.05-0.01-0.06-0.02c-0.34-0.16-0.8-0.34-1.13-0.46c-0.42-0.16-0.89-0.33-1.36-0.5
		l-0.89-0.31c-0.53-0.18-1.02-0.36-1.4-0.5c0-0.06,0-0.12,0-0.19c0-0.65,0.04-1.52,0.07-2.21c0.02-0.47,0.05-0.93,0.07-1.37
		l0.05-0.95c0.02-0.47,0.04-0.86,0.04-1.05c0-0.06,0-0.11,0-0.15l0,0c-0.04-1.19-0.09-2.38-0.14-3.57l-0.04-1.09
		c-0.03-0.69-0.04-1.41-0.04-2.12c0-0.09,0-0.18-0.01-0.27c0.24,0.01,0.44,0.01,0.61,0.01c0,0,0,0,0,0c0.4,0,0.71-0.03,0.98-0.09
		c0.33-0.07,0.61-0.19,0.93-0.38c0.17-0.11,0.34-0.23,0.53-0.4c0.18-0.16,0.35-0.35,0.46-0.48c0.14-0.16,0.29-0.36,0.46-0.58
		c0.28-0.38,0.61-0.85,0.98-1.42c0.76-1.17,1.49-2.42,1.86-3.06c0.35-0.61,0.63-1.12,0.77-1.38l0.12-0.23
		C22.47,8.41,22.58,8.2,22.67,8c0.2-0.44,0.33-0.85,0.37-1.23c0.05-0.37,0.07-0.75,0.07-1.18c0-0.51-0.03-1.01-0.06-1.5
		C23.03,3.6,23,3.15,23,2.71c0-0.15,0-0.31,0.01-0.48c0.01-0.1,0.03-0.15,0.03-0.16c0.01-0.01,0.04-0.02,0.08-0.03
		C23.21,2.01,23.31,2,23.43,2 M23.44,0c-0.27,0-0.54,0.03-0.81,0.1c-0.2,0.05-0.4,0.13-0.59,0.24c-0.28,0.16-0.54,0.41-0.72,0.72
		c-0.18,0.31-0.28,0.67-0.3,1.06C21,2.31,21,2.51,21,2.71c0,1,0.12,1.98,0.12,2.88c0,0.32-0.02,0.64-0.05,0.93
		c-0.02,0.19-0.1,0.4-0.21,0.65c-0.11,0.24-0.26,0.5-0.4,0.78c-0.13,0.25-0.4,0.73-0.73,1.31c-0.5,0.87-1.17,1.99-1.8,2.97
		c-0.32,0.49-0.63,0.94-0.9,1.31c-0.14,0.18-0.26,0.34-0.38,0.48c-0.11,0.13-0.21,0.23-0.27,0.29c-0.11,0.09-0.19,0.16-0.26,0.2
		c-0.11,0.07-0.18,0.1-0.3,0.12c-0.12,0.03-0.29,0.04-0.55,0.04c0,0-0.01,0-0.01,0c-0.42,0-1.05-0.04-1.97-0.07
		c-0.01,0-0.02,0-0.02,0c-0.41,0-0.75,0.33-0.77,0.74c0,0.06,0,0.12,0.02,0.18c-0.03,0.13-0.05,0.25-0.05,0.36
		c0,0.16,0.02,0.3,0.05,0.41c0.04,0.18,0.09,0.31,0.11,0.42c0.03,0.11,0.04,0.18,0.04,0.2c0,0.74,0.01,1.48,0.04,2.21
		c0.06,1.57,0.13,3.11,0.18,4.66v0c0,0.02,0,0.04,0,0.07c0,0.18-0.01,0.52-0.04,0.95c-0.03,0.64-0.08,1.48-0.13,2.32
		c-0.04,0.83-0.08,1.66-0.08,2.31c0,0.3,0.01,0.56,0.03,0.79c0.01,0.11,0.02,0.22,0.05,0.33c0.01,0.06,0.03,0.12,0.07,0.2
		c0.02,0.04,0.04,0.08,0.07,0.13c0.03,0.05,0.08,0.11,0.14,0.17c0.07,0.06,0.11,0.09,0.15,0.11c0.07,0.04,0.13,0.07,0.2,0.1
		c0.12,0.06,0.27,0.11,0.44,0.18c0.6,0.23,1.54,0.55,2.47,0.88c0.46,0.16,0.92,0.33,1.33,0.48c0.4,0.15,0.75,0.3,0.99,0.4
		c0.12,0.06,0.23,0.09,0.35,0.13c0.23,0.06,0.48,0.11,0.78,0.16c0.52,0.08,1.17,0.15,1.91,0.2c2.21,0.16,5.2,0.24,7.59,0.24
		c1,0,1.89-0.01,2.57-0.04c0.34-0.01,0.64-0.03,0.87-0.05c0.12-0.01,0.22-0.02,0.32-0.03c0.05-0.01,0.09-0.01,0.14-0.02
		c0.04-0.01,0.07-0.02,0.12-0.03c0.01,0,0.03-0.01,0.07-0.01c0.08-0.01,0.21-0.02,0.36-0.03c0.27-0.02,0.62-0.05,0.99-0.11
		c0.28-0.05,0.58-0.12,0.88-0.23c0.23-0.08,0.45-0.18,0.67-0.32c0.32-0.2,0.63-0.49,0.85-0.86c0.22-0.38,0.34-0.84,0.34-1.33
		c0-0.72-0.18-1.33-0.48-1.81c-0.11-0.17-0.23-0.31-0.35-0.44c0.1-0.04,0.2-0.07,0.3-0.12c0.41-0.18,0.81-0.46,1.12-0.87
		c0.31-0.41,0.52-0.93,0.58-1.54c0.01-0.12,0.02-0.24,0.02-0.35c0-0.31-0.05-0.61-0.15-0.88c-0.11-0.29-0.27-0.54-0.46-0.75
		c0.12-0.06,0.24-0.13,0.36-0.22c0.32-0.22,0.6-0.53,0.8-0.92c0.2-0.39,0.32-0.84,0.35-1.35c0.01-0.1,0.01-0.2,0.01-0.3
		c0-0.43-0.05-0.86-0.18-1.26c-0.09-0.3-0.22-0.59-0.4-0.85c-0.1-0.14-0.21-0.28-0.33-0.4c0.03-0.03,0.06-0.05,0.09-0.07
		c0.16-0.15,0.29-0.33,0.4-0.53c0.16-0.3,0.26-0.64,0.33-1.03c0.07-0.39,0.1-0.84,0.1-1.37c0-0.36-0.07-0.71-0.21-1.01
		c-0.12-0.27-0.28-0.51-0.47-0.71c-0.33-0.35-0.73-0.6-1.15-0.78c-0.63-0.27-1.31-0.41-1.95-0.5c-0.63-0.08-1.23-0.1-1.66-0.1
		c-0.65,0-1.07,0.01-1.46,0.03c-0.39,0.01-0.76,0.03-1.37,0.03c-0.03,0-0.05,0-0.08,0c-0.03,0-0.05,0-0.08,0
		c-0.63,0-1.02,0.02-1.53,0.04c-0.41,0.02-0.91,0.04-1.71,0.05c0.01-0.11,0.01-0.22,0.03-0.34c0.02-0.16,0.05-0.31,0.07-0.44v0
		c0.16-0.93,0.49-2.05,0.74-3.01c0.15-0.57,0.23-1.27,0.23-2.03c0-1.02-0.15-2.17-0.52-3.25c-0.19-0.54-0.43-1.06-0.75-1.55
		c-0.32-0.48-0.72-0.92-1.2-1.27C26.08,0.7,25.62,0.47,25.1,0.3C24.58,0.12,24.01,0,23.44,0L23.44,0z"/>
	<path d="M2.72,14.26c0.22,0.02,0.45,0.04,0.68,0.06l0.09,0.01c0.66,0.06,1.34,0.13,2.03,0.13c0.15,0,0.29,0,0.43-0.01
		c0.17-0.01,0.37-0.01,0.57-0.01c0.37,0,0.79,0.01,1.21,0.02c0.37,0.01,0.73,0.01,1.09,0.02c0,0.15,0,0.32,0,0.49
		c0,0.85,0,1.53,0,2.21c0,0.65,0,1.31,0,2.12c0,1.2-0.05,2.45-0.1,3.66c-0.05,1.25-0.1,2.54-0.1,3.8c0,0.67,0.01,1.27,0.04,1.85
		c0.01,0.22,0.01,0.43,0.01,0.64c0,0.33-0.01,0.65-0.02,0.97c-0.01,0.34-0.02,0.67-0.02,0.99c0,0.15,0,0.3,0.01,0.4v0.03l0,0.03
		l0,0.07c0,0.03,0,0.05,0,0.08c-0.12,0.03-0.24,0.06-0.38,0.08L8.22,31.9C7.85,31.96,7.42,31.98,7.04,32l-0.07,0
		c-0.02,0-0.05,0-0.08,0c-0.22,0-0.49-0.01-0.75-0.02c-0.11-0.5-0.26-1.12-0.39-1.64c-0.63-2.45-1.19-4.82-1.81-8.91
		c-0.15-0.99-0.27-1.59-0.39-2.18l-0.02-0.11c-0.13-0.63-0.24-1.19-0.36-2.09l-0.01-0.06c-0.01-0.09-0.05-0.34-0.1-0.67l-0.01-0.07
		l-0.16-1.03C2.83,14.9,2.77,14.57,2.72,14.26 M1.71,12.22c-0.15,0-0.31,0-0.46,0.01H1.24c0,0-0.02,0-0.03,0
		c-0.02,0-0.04,0.01-0.07,0.01c-0.02,0-0.04,0-0.06,0.01c0,0-0.01,0-0.01,0c-0.03,0.01-0.06,0.02-0.09,0.03
		c-0.02,0.01-0.04,0.01-0.06,0.02c-0.02,0.01-0.05,0.03-0.07,0.04c-0.02,0.01-0.04,0.02-0.06,0.04c-0.02,0.01-0.04,0.03-0.06,0.05
		c-0.02,0.02-0.04,0.03-0.05,0.05c-0.02,0.02-0.03,0.04-0.05,0.06c-0.01,0.02-0.03,0.04-0.04,0.06c-0.01,0.02-0.02,0.04-0.03,0.07
		c-0.01,0.02-0.02,0.04-0.03,0.07c-0.01,0.02-0.01,0.05-0.02,0.07c-0.01,0.03-0.01,0.05-0.02,0.08c0,0.02,0,0.04-0.01,0.07
		c0,0.03-0.01,0.06,0,0.09c0,0.01,0,0.01,0,0.01c0,0.02,0.01,0.04,0.01,0.06c0,0.02,0,0.04,0.01,0.06c0.01,0.03,0.02,0.13,0.05,0.25
		c0.08,0.45,0.22,1.32,0.35,2.13c0.06,0.4,0.12,0.79,0.17,1.1c0.05,0.31,0.08,0.54,0.09,0.63v0c0.14,1.03,0.27,1.67,0.39,2.28
		c0.12,0.61,0.25,1.19,0.4,2.19c0.61,4.01,1.15,6.36,1.85,9.11c0.13,0.52,0.28,1.14,0.39,1.64c0.06,0.25,0.11,0.46,0.14,0.61
		c0.03,0.15,0.05,0.24,0.05,0.24c0.07,0.34,0.36,0.58,0.71,0.6c0,0,0.29,0.02,0.66,0.03C6.13,33.98,6.57,34,6.89,34
		c0.09,0,0.16,0,0.24,0l0,0c0.44-0.02,0.96-0.05,1.45-0.12l0,0c0.27-0.04,0.5-0.11,0.71-0.16c0.2-0.05,0.37-0.08,0.48-0.08
		c0,0,0.01,0,0.01,0c0.02,0,0.04,0,0.06,0c0.03,0,0.06,0.01,0.09,0.01c0.22,0,0.43-0.09,0.58-0.26c0.17-0.19,0.23-0.45,0.17-0.7
		c-0.03-0.12-0.04-0.22-0.04-0.37c0-0.15,0.01-0.33,0.01-0.57c0-0.04,0-0.08,0-0.13v0c0-0.13-0.01-0.27-0.01-0.4
		c0-0.63,0.03-1.28,0.03-1.96c0-0.24,0-0.48-0.02-0.73c-0.03-0.58-0.04-1.16-0.04-1.76c0-2.44,0.2-4.98,0.2-7.46
		c0-1.66,0.01-2.68,0.01-4.34c0-0.58,0-1.02,0-1.31c0-0.15,0-0.25,0-0.32c0-0.07,0-0.11,0-0.11c0-0.21-0.08-0.42-0.24-0.57
		c-0.14-0.13-0.34-0.21-0.53-0.21c-0.02,0-0.03,0-0.05,0c-0.24,0.02-0.56,0.02-0.92,0.02c-0.01,0-0.01,0-0.02,0
		c-0.8,0-1.77-0.03-2.55-0.03c-0.24,0-0.46,0-0.65,0.01c-0.12,0.01-0.23,0.01-0.35,0.01c-0.59,0-1.2-0.06-1.84-0.12
		C3.05,12.28,2.39,12.22,1.71,12.22L1.71,12.22z"/>
</svg>
